<svg width="14" height="20" viewBox="0 0 14 20" fill="none" xmlns="http://www.w3.org/2000/svg">
<g id="Component 2">
<path id="Vector" d="M6.99993 9.86303C5.49223 9.86303 4.30762 8.65755 4.30762 7.1233C4.30762 5.58905 5.49223 4.38358 6.99993 4.38358C8.50762 4.38358 9.69223 5.58905 9.69223 7.1233C9.69223 8.65755 8.50762 9.86303 6.99993 9.86303ZM6.99993 5.47947C6.08454 5.47947 5.38454 6.19179 5.38454 7.1233C5.38454 8.05481 6.08454 8.76714 6.99993 8.76714C7.91531 8.76714 8.61531 8.05481 8.61531 7.1233C8.61531 6.19179 7.91531 5.47947 6.99993 5.47947Z" fill="#F6B426"/>
<path id="Vector_2" d="M7 20L6.56923 19.5068C6.3 19.2329 0 11.6712 0 7.12329C0 3.17808 3.12308 0 7 0C10.8769 0 14 3.17808 14 7.12329C14 11.6712 7.7 19.2329 7.43077 19.5616L7 20ZM7 1.09589C3.71538 1.09589 1.07692 3.78082 1.07692 7.12329C1.07692 10.6301 5.6 16.5479 7 18.3014C8.4 16.5479 12.9231 10.6301 12.9231 7.12329C12.9231 3.78082 10.2846 1.09589 7 1.09589Z" fill="#F6B426"/>
</g>
</svg>
